<?xml version="1.0" encoding="UTF-8"?>
<!DOCTYPE svg PUBLIC "-//W3C//DTD SVG 1.1//EN" "http://www.w3.org/Graphics/SVG/1.1/DTD/svg11.dtd">
<svg xmlns="http://www.w3.org/2000/svg" version="1.1" width="313px" height="97px" style="shape-rendering:geometricPrecision; text-rendering:geometricPrecision; image-rendering:optimizeQuality; fill-rule:evenodd; clip-rule:evenodd" xmlns:xlink="http://www.w3.org/1999/xlink">
<g><path style="opacity:0.061" fill="#000000" d="M 250.5,-0.5 C 261.5,-0.5 272.5,-0.5 283.5,-0.5C 299.059,2.72523 308.725,12.0586 312.5,27.5C 312.5,44.8333 312.5,62.1667 312.5,79.5C 310.662,85.511 307.996,91.1776 304.5,96.5C 279.5,96.5 254.5,96.5 229.5,96.5C 224.134,88.7385 221.134,80.0719 220.5,70.5C 222.833,70.5 225.167,70.5 227.5,70.5C 228.265,65.0936 225.931,63.0936 220.5,64.5C 220.334,54.1613 220.5,43.828 221,33.5C 222.559,14.7856 232.393,3.4523 250.5,-0.5 Z"/></g>
<g><path style="opacity:1" fill="#1b222c" d="M 247.5,13.5 C 260.171,13.3334 272.838,13.5001 285.5,14C 289.583,15.9647 292.416,19.1314 294,23.5C 294.667,39.8333 294.667,56.1667 294,72.5C 293.036,76.4685 290.869,79.6351 287.5,82C 274.595,83.628 261.595,83.9613 248.5,83C 244.183,80.6849 241.35,77.1849 240,72.5C 239.333,56.1667 239.333,39.8333 240,23.5C 241.803,19.5225 244.303,16.1892 247.5,13.5 Z"/></g>
<g><path style="opacity:0.832" fill="#4e4e4e" d="M 168.5,23.5 C 171.167,23.5 173.833,23.5 176.5,23.5C 176.5,25.8333 176.5,28.1667 176.5,30.5C 173.833,30.5 171.167,30.5 168.5,30.5C 168.5,28.1667 168.5,25.8333 168.5,23.5 Z"/></g>
<g><path style="opacity:0.831" fill="#4e4e4e" d="M 207.5,23.5 C 210.167,23.5 212.833,23.5 215.5,23.5C 215.5,25.8333 215.5,28.1667 215.5,30.5C 212.833,30.5 210.167,30.5 207.5,30.5C 207.5,28.1667 207.5,25.8333 207.5,23.5 Z"/></g>
<g><path style="opacity:0.898" fill="#4e4e4e" d="M -0.5,24.5 C 2.16667,24.5 4.83333,24.5 7.5,24.5C 7.33368,31.8409 7.50034,39.1742 8,46.5C 13.6907,39.6435 19.1907,32.6435 24.5,25.5C 27.4281,24.5159 30.4281,24.1826 33.5,24.5C 33.6495,25.552 33.4828,26.552 33,27.5C 28.0088,33.4818 23.5088,39.8151 19.5,46.5C 24.2511,54.3374 29.2511,62.004 34.5,69.5C 31.2156,70.657 27.8823,70.8236 24.5,70C 20.6667,64.1667 16.8333,58.3333 13,52.5C 7.90262,57.3575 6.06929,63.3575 7.5,70.5C 4.83333,70.5 2.16667,70.5 -0.5,70.5C -0.5,55.1667 -0.5,39.8333 -0.5,24.5 Z"/></g>
<g><path style="opacity:1" fill="#e6e5e6" d="M 255.5,28.5 C 257.167,28.5 258.833,28.5 260.5,28.5C 260.334,36.5069 260.5,44.5069 261,52.5C 264.167,49.3333 267.333,46.1667 270.5,43C 272.833,42.3333 275.167,42.3333 277.5,43C 273.984,46.3486 270.651,49.8486 267.5,53.5C 270.802,58.6027 274.469,63.436 278.5,68C 276.167,68.6667 273.833,68.6667 271.5,68C 269.026,64.2253 266.193,60.7253 263,57.5C 262.333,58.1667 261.667,58.8333 261,59.5C 260.502,62.4816 260.335,65.4816 260.5,68.5C 258.833,68.5 257.167,68.5 255.5,68.5C 255.5,55.1667 255.5,41.8333 255.5,28.5 Z"/></g>
<g><path style="opacity:0.885" fill="#4f4f4f" d="M 48.5,35.5 C 54.7283,34.6828 60.3949,36.0161 65.5,39.5C 66,40.5 66.5,41.5 67,42.5C 67.3333,49.8333 67.6667,57.1667 68,64.5C 69.0084,64.9817 70.175,65.1484 71.5,65C 73.3336,69.7126 71.6669,71.8792 66.5,71.5C 63.6753,71.8809 61.5087,70.8809 60,68.5C 53.4672,72.4752 46.9672,72.4752 40.5,68.5C 38.0177,63.9763 37.851,59.3096 40,54.5C 41.7998,52.683 43.9664,51.5163 46.5,51C 50.7901,50.0775 55.1234,49.5775 59.5,49.5C 59.0267,42.2562 55.3601,40.0895 48.5,43C 47.8333,44.3333 47.1667,45.6667 46.5,47C 44.1902,47.4966 41.8568,47.6633 39.5,47.5C 39.2475,44.6802 39.7475,42.0135 41,39.5C 43.5138,37.9958 46.0138,36.6624 48.5,35.5 Z M 51.5,55.5 C 54.1667,55.5 56.8333,55.5 59.5,55.5C 58.8352,63.357 54.8352,66.1904 47.5,64C 45.4853,59.5395 46.8187,56.7061 51.5,55.5 Z"/></g>
<g><path style="opacity:0.893" fill="#4e4e4e" d="M 91.5,35.5 C 95.247,35.3924 98.9137,35.8924 102.5,37C 104.726,38.2273 106.226,40.0607 107,42.5C 108.353,51.7754 108.853,61.1088 108.5,70.5C 105.5,70.5 102.5,70.5 99.5,70.5C 99.6664,62.4931 99.4997,54.4931 99,46.5C 97.3088,42.7873 94.4755,41.6206 90.5,43C 88.9512,44.214 87.7845,45.714 87,47.5C 86.5003,55.1594 86.3336,62.8261 86.5,70.5C 83.8333,70.5 81.1667,70.5 78.5,70.5C 78.5,59.1667 78.5,47.8333 78.5,36.5C 81.3938,36.0423 83.8938,36.709 86,38.5C 87.8761,37.3913 89.7095,36.3913 91.5,35.5 Z"/></g>
<g><path style="opacity:0.885" fill="#4f4f4f" d="M 126.5,35.5 C 132.728,34.6828 138.395,36.0161 143.5,39.5C 144,40.5 144.5,41.5 145,42.5C 145.333,49.8333 145.667,57.1667 146,64.5C 147.008,64.9817 148.175,65.1484 149.5,65C 151.334,69.7126 149.667,71.8792 144.5,71.5C 141.675,71.8809 139.509,70.8809 138,68.5C 131.467,72.4752 124.967,72.4752 118.5,68.5C 116.018,63.9763 115.851,59.3096 118,54.5C 119.8,52.683 121.966,51.5163 124.5,51C 128.79,50.0775 133.123,49.5775 137.5,49.5C 137.027,42.2562 133.36,40.0895 126.5,43C 125.833,44.3333 125.167,45.6667 124.5,47C 122.19,47.4966 119.857,47.6633 117.5,47.5C 117.248,44.6802 117.748,42.0135 119,39.5C 121.514,37.9958 124.014,36.6624 126.5,35.5 Z M 129.5,55.5 C 132.167,55.5 134.833,55.5 137.5,55.5C 136.835,63.357 132.835,66.1904 125.5,64C 123.485,59.5395 124.819,56.7061 129.5,55.5 Z"/></g>
<g><path style="opacity:0.901" fill="#4e4e4e" d="M 156.5,36.5 C 163.167,36.5 169.833,36.5 176.5,36.5C 176.667,50.1707 176.5,63.8374 176,77.5C 173.605,81.3869 170.105,83.3869 165.5,83.5C 162.553,82.5774 159.553,81.9107 156.5,81.5C 156.5,79.5 156.5,77.5 156.5,75.5C 158.848,75.6695 161.182,76.0029 163.5,76.5C 165.374,76.6102 166.874,75.9436 168,74.5C 168.5,63.8385 168.667,53.1719 168.5,42.5C 164.5,42.5 160.5,42.5 156.5,42.5C 156.5,40.5 156.5,38.5 156.5,36.5 Z"/></g>
<g><path style="opacity:0.918" fill="#4e4e4e" d="M 220.5,64.5 C 225.931,63.0936 228.265,65.0936 227.5,70.5C 225.167,70.5 222.833,70.5 220.5,70.5C 212.167,70.5 203.833,70.5 195.5,70.5C 195.5,68.5 195.5,66.5 195.5,64.5C 199.5,64.5 203.5,64.5 207.5,64.5C 207.5,57.1667 207.5,49.8333 207.5,42.5C 203.5,42.5 199.5,42.5 195.5,42.5C 195.5,40.5 195.5,38.5 195.5,36.5C 202.167,36.5 208.833,36.5 215.5,36.5C 215.5,45.8333 215.5,55.1667 215.5,64.5C 217.167,64.5 218.833,64.5 220.5,64.5 Z"/></g>
</svg>
